<?xml version="1.0" encoding="UTF-8"?>
<svg width="512" height="512" viewBox="0 0 512 512" fill="none" xmlns="http://www.w3.org/2000/svg">
  <!-- Background Circle -->
  <circle cx="256" cy="256" r="248" fill="#4F46E5" />
  
  <!-- Inner Design - Stylized D and AI -->
  <path d="M 180 140
           C 180 140, 220 140, 280 140
           C 340 140, 380 180, 380 256
           C 380 332, 340 372, 280 372
           C 220 372, 180 372, 180 372
           L 180 140
           M 180 180
           L 180 332
           C 180 332, 220 332, 270 332
           C 320 332, 340 300, 340 256
           C 340 212, 320 180, 270 180
           C 220 180, 180 180, 180 180
           Z" 
        fill="white"/>
  
  <!-- AI part -->
  <path d="M 220 240
           L 240 300
           L 200 300
           Z" 
        fill="#4F46E5"/>
  
  <!-- Dot -->
  <circle cx="220" cy="220" r="8" fill="#4F46E5"/>
</svg> 